<svg xmlns="http://www.w3.org/2000/svg" width="512" height="512" viewBox="0 0 512 512">
  <defs>
    <linearGradient id="bg" x1="0%" y1="0%" x2="100%" y2="100%">
      <stop offset="0%" style="stop-color:#3B82F6"/>
      <stop offset="100%" style="stop-color:#8B5CF6"/>
    </linearGradient>
    <clipPath id="circle">
      <circle cx="256" cy="256" r="256"/>
    </clipPath>
  </defs>
  <circle cx="256" cy="256" r="256" fill="url(#bg)"/>
  <g clip-path="url(#circle)" transform="translate(58, 56) scale(1.0)">
    <path d="M 119.62 267.19 C119.34,266.74 126.48,252.68 135.48,235.94 L 151.85 205.50 L 212.17 205.00 L 272.50 204.50 L 278.04 201.78 C287.16,197.30 291.00,189.75 291.00,176.28 C291.00,163.77 286.40,156.87 275.70,153.32 C271.33,151.88 264.93,151.51 235.50,151.05 L 200.50 150.50 L 195.21 140.25 L 189.93 130.00 L 228.33 130.00 C270.34,130.00 278.45,130.74 290.37,135.63 C293.88,137.07 298.86,140.05 301.42,142.24 C312.17,151.43 317.17,170.58 313.88,189.92 C310.91,207.36 300.61,218.04 281.33,223.69 C276.25,225.18 268.29,225.47 219.17,225.95 L 162.84 226.50 L 152.44 245.87 C146.72,256.53 141.53,265.87 140.90,266.62 C139.63,268.15 120.53,268.66 119.62,267.19 ZM 94.05 246.25 C116.18,203.49 144.47,149.01 149.35,139.73 L 154.50 129.96 L 166.82 130.23 L 179.15 130.50 L 183.39 138.50 C194.61,159.62 212.00,193.94 212.00,194.94 C212.00,195.72 208.21,195.98 199.39,195.78 L 186.78 195.50 L 177.14 177.51 C171.84,167.62 167.13,159.52 166.69,159.51 C166.24,159.51 164.29,162.43 162.34,166.00 C152.80,183.56 142.08,203.46 137.54,212.04 C134.77,217.29 127.13,231.58 120.56,243.79 L 108.62 266.00 L 96.22 266.00 L 83.83 266.00 L 94.05 246.25 ZM 216.71 250.98 L 208.91 236.00 L 221.38 236.00 L 233.85 236.00 L 241.43 250.39 C245.59,258.31 249.00,265.06 249.00,265.39 C249.00,265.73 243.49,265.99 236.75,265.98 L 224.50 265.96 L 216.71 250.98 Z" fill="white"/>
  </g>
</svg>
